<!-- icon666.com - MILLIONS vector ICONS FREE --><svg id="Layer_1" enable-background="new 0 0 2000 2000" viewBox="0 0 2000 2000" xmlns="http://www.w3.org/2000/svg"><g><g><path d="m1744 693.5h-1488c-35.3 0-64-28.7-64-64s28.7-64 64-64h1488c35.3 0 64 28.7 64 64s-28.7 64-64 64z"></path></g><g><path d="m1744 1064h-1488c-35.3 0-64-28.7-64-64s28.7-64 64-64h1488c35.3 0 64 28.7 64 64s-28.7 64-64 64z"></path></g><g><path d="m1744 1434.5h-1488c-35.3 0-64-28.7-64-64s28.7-64 64-64h1488c35.3 0 64 28.7 64 64s-28.7 64-64 64z"></path></g></g></svg>