<svg width="842" height="199" viewBox="0 0 842 199" fill="none" xmlns="http://www.w3.org/2000/svg">
<path fill-rule="evenodd" clip-rule="evenodd" d="M151.42 153.07C103.87 153.07 56.39 153.07 8.80005 153.07C8.80005 105.54 8.80005 58.1101 8.80005 10.5601C56.32 10.5601 103.8 10.5601 151.42 10.5601C151.42 57.9901 151.42 105.41 151.42 153.07ZM134.33 90.2701C134.38 90.2701 134.43 90.2701 134.49 90.2701C134.49 80.6701 134.52 71.0801 134.45 61.4801C134.44 60.5401 134.06 59.4001 133.45 58.6901C125.67 49.4801 117.8 40.3501 110.01 31.1601C109.19 30.2001 108.42 29.8901 107.18 30.0001C89.17 31.6101 71.16 33.1601 53.16 34.7901C52.28 34.8701 51.3001 35.4501 50.6501 36.0901C43.0001 43.4901 35.41 50.9601 27.7701 58.3801C26.8601 59.2701 26.46 60.1501 26.47 61.4401C26.56 80.6301 26.62 99.8201 26.62 119.01C26.62 120.36 27.01 120.93 28.32 121.3C45.14 126.08 61.94 130.94 78.76 135.72C79.76 136 80.97 136.02 81.97 135.74C98.92 131.01 115.86 126.2 132.81 121.45C133.97 121.12 134.37 120.64 134.36 119.41C134.31 109.7 134.33 99.9901 134.33 90.2701Z" fill="black"/>
<path fill-rule="evenodd" clip-rule="evenodd" d="M134.33 90.2701C134.33 99.9801 134.31 109.69 134.36 119.41C134.37 120.64 133.97 121.13 132.81 121.45C115.86 126.2 98.9302 131.01 81.9702 135.74C80.9702 136.02 79.7602 136 78.7602 135.72C61.9402 130.94 45.1402 126.09 28.3202 121.3C27.0102 120.93 26.6202 120.36 26.6202 119.01C26.6102 99.8201 26.5602 80.6301 26.4702 61.4401C26.4602 60.1601 26.8602 59.2701 27.7702 58.3801C35.4102 50.9601 43.0002 43.4901 50.6502 36.0901C51.3102 35.4601 52.2902 34.8701 53.1602 34.7901C71.1602 33.1601 89.1702 31.6101 107.18 30.0001C108.42 29.8901 109.19 30.2001 110.01 31.1601C117.8 40.3601 125.67 49.4901 133.45 58.6901C134.05 59.4001 134.44 60.5401 134.45 61.4801C134.52 71.0801 134.49 80.6701 134.49 90.2701C134.43 90.2701 134.38 90.2701 134.33 90.2701ZM57.2402 38.5701C57.5102 39.0201 57.6002 39.2201 57.7402 39.3901C65.4202 48.5101 73.1301 57.6101 80.7701 66.7701C81.6101 67.7801 82.4602 67.7701 83.5402 67.6101C97.8802 65.4901 112.22 63.3801 126.56 61.2701C127.62 61.1101 128.66 60.9101 129.87 60.6901C129.58 60.2701 129.47 60.0601 129.32 59.8901C122.2 51.6701 115.1 43.4301 107.92 35.2701C107.42 34.7001 106.32 34.3001 105.54 34.3601C97.2102 35.0101 88.8802 35.7501 80.5502 36.4901C72.8902 37.1701 65.2002 37.8601 57.2402 38.5701ZM53.0602 68.1201C53.0602 69.2401 52.9502 70.1701 53.0802 71.0801C53.8202 76.5801 54.3002 82.1401 55.4602 87.5501C58.4502 101.49 63.8202 114.42 72.8902 125.6C74.3602 127.41 76.1802 128.95 77.8302 130.61C77.9902 130.52 78.1402 130.42 78.3002 130.33C78.3002 127.72 78.1502 125.1 78.3502 122.5C78.5102 120.32 77.7902 118.83 76.1702 117.37C72.1802 113.79 68.3802 109.99 64.3502 106.14C65.4002 105.18 66.3302 104.32 67.3702 103.37C70.9502 106.8 74.5401 110.24 78.1301 113.68C78.3501 113.44 78.4202 113.4 78.4202 113.36C78.4402 99.9701 78.4702 86.5901 78.4302 73.2001C78.4302 72.7901 77.7701 72.1001 77.3401 72.0301C69.3201 70.6901 61.3002 69.4301 53.0602 68.1201ZM108.26 68.1101C107.56 68.1401 107.22 68.1301 106.89 68.1801C99.2702 69.3901 91.6501 70.6501 84.0201 71.7901C82.7301 71.9801 82.4402 72.4701 82.4402 73.6901C82.4802 86.5601 82.4602 99.4301 82.4702 112.3C82.4702 112.73 82.5601 113.15 82.6301 113.84C86.4501 110.21 90.0702 106.77 93.7802 103.25C94.6702 104.31 95.4001 105.19 96.1301 106.07C95.9401 105.96 95.7502 105.85 95.5502 105.74C91.5802 109.95 87.6102 114.17 83.6502 118.39C83.2602 118.81 82.6502 119.28 82.6402 119.74C82.5502 123.22 82.5901 126.69 82.5901 130.17C82.8001 130.28 83.0102 130.4 83.2102 130.51C85.3102 128.2 87.7202 126.1 89.4602 123.55C98.8602 109.78 105.07 94.7001 107.33 78.1101C107.79 74.8401 107.95 71.5201 108.26 68.1101ZM130.38 102.65C128.88 104.02 127.62 105.16 126.33 106.34C125.36 105.26 124.56 104.37 123.78 103.5C125.85 101.39 127.8 99.4701 129.66 97.4501C130.12 96.9601 130.47 96.1601 130.48 95.5001C130.54 89.6501 130.51 83.8101 130.5 77.9601C130.5 73.5301 130.5 69.1001 130.5 64.4201C123.94 65.4501 117.62 66.4401 111.29 67.4301C111.24 67.8201 111.16 68.0501 111.19 68.2701C112.14 77.4501 112.94 86.6301 115.98 95.4801C118.5 102.82 122.32 109.25 127.89 114.64C128.61 115.34 129.43 115.94 130.37 116.74C130.38 111.92 130.38 107.47 130.38 102.65ZM30.8002 64.9001C30.7002 65.2801 30.6102 65.4501 30.6102 65.6201C30.5602 75.5601 30.5102 85.4901 30.5202 95.4301C30.5202 96.0201 30.9802 96.7201 31.4102 97.1901C33.3502 99.2801 35.3502 101.31 37.3802 103.42C36.6002 104.19 35.7402 105.04 34.8402 105.93C33.5202 104.76 32.2102 103.6 30.6102 102.18C30.6102 107.21 30.6102 111.77 30.6102 116.61C31.3202 116.07 31.8902 115.77 32.3002 115.31C34.5102 112.83 36.9402 110.49 38.8002 107.77C46.8102 96.0801 48.5302 82.5601 49.6702 68.9101C49.7002 68.5701 49.1002 67.9001 48.7102 67.8401C42.7802 66.8301 36.8502 65.8801 30.8002 64.9001ZM75.6102 67.4601C75.6802 67.3301 75.7502 67.2101 75.8202 67.0801C68.3002 58.1901 60.7802 49.3001 53.1602 40.3101C45.8502 47.1001 38.6702 53.7701 31.1502 60.7501C46.2702 63.0301 60.9402 65.2401 75.6102 67.4601ZM109.67 86.8801C105.8 102.46 100.75 116.98 90.0002 129.42C102.59 125.94 114.67 122.61 127.04 119.2C117.49 110.43 112.25 99.6201 109.67 86.8801ZM33.7602 119.09C46.2002 122.51 58.2802 125.83 70.8302 129.28C60.7502 117 54.7902 103.28 51.2002 87.9901C47.6002 99.8801 43.7102 111 33.7602 119.09Z" fill="white"/>
<path d="M57.24 38.5701C65.2 37.8601 72.88 37.1701 80.56 36.4901C88.89 35.7601 97.21 35.0101 105.55 34.3601C106.33 34.3001 107.42 34.6901 107.93 35.2701C115.11 43.4401 122.21 51.6701 129.33 59.8901C129.48 60.0601 129.59 60.2601 129.88 60.6901C128.67 60.9001 127.62 61.1101 126.57 61.2701C112.23 63.3901 97.89 65.4901 83.55 67.6101C82.47 67.7701 81.62 67.7801 80.78 66.7701C73.14 57.6101 65.43 48.5101 57.75 39.3901C57.6 39.2201 57.51 39.0101 57.24 38.5701Z" fill="black"/>
<path fill-rule="evenodd" clip-rule="evenodd" d="M53.0601 68.1201C61.2901 69.4301 69.3201 70.6901 77.3201 72.0201C77.7501 72.0901 78.4101 72.7901 78.4101 73.1901C78.4501 86.5801 78.4201 99.9601 78.4001 113.35C78.4001 113.39 78.3301 113.43 78.1101 113.67C74.5201 110.23 70.9401 106.8 67.3501 103.36C66.3101 104.32 65.3701 105.17 64.3301 106.13C68.3601 109.98 72.1601 113.78 76.1501 117.36C77.7801 118.82 78.5001 120.31 78.3301 122.49C78.1401 125.09 78.2801 127.71 78.2801 130.32C78.1201 130.41 77.9701 130.51 77.8101 130.6C76.1501 128.94 74.3401 127.4 72.8701 125.59C63.8001 114.42 58.4301 101.48 55.4401 87.5401C54.2801 82.1301 53.8001 76.5701 53.0601 71.0701C52.9601 70.1701 53.0601 69.2401 53.0601 68.1201ZM61.8301 78.3601C61.5401 80.2301 62.2901 81.3301 63.3401 82.1701C65.6001 84.0001 67.9401 85.7401 70.2701 87.4701C71.0801 88.0701 73.1101 87.5301 73.3101 86.5201C73.4201 85.9501 72.7701 84.9701 72.1901 84.5801C69.5301 82.8101 66.7801 81.1701 64.0401 79.5001C63.4201 79.1201 62.7401 78.8301 61.8301 78.3601Z" fill="black"/>
<path fill-rule="evenodd" clip-rule="evenodd" d="M108.26 68.1101C107.96 71.5201 107.8 74.8401 107.35 78.1201C105.09 94.7101 98.88 109.79 89.48 123.56C87.74 126.11 85.33 128.21 83.23 130.52C83.02 130.41 82.81 130.29 82.61 130.18C82.61 126.7 82.57 123.22 82.66 119.75C82.67 119.29 83.28 118.81 83.67 118.4C87.63 114.18 91.6 109.97 95.57 105.75C95.76 105.86 95.95 105.97 96.15 106.08C95.42 105.2 94.68 104.32 93.8 103.26C90.1 106.78 86.48 110.22 82.65 113.85C82.57 113.16 82.49 112.73 82.49 112.31C82.48 99.4401 82.5 86.5701 82.46 73.7001C82.46 72.4801 82.75 71.9901 84.04 71.8001C91.67 70.6501 99.29 69.4001 106.91 68.1901C107.21 68.1201 107.56 68.1401 108.26 68.1101ZM100.03 78.9301C99.82 78.7701 99.6 78.6001 99.39 78.4401C98.92 78.6301 98.41 78.7601 97.98 79.0201C95 80.8601 92.01 82.6701 89.1 84.6201C88.57 84.9701 87.98 86.2401 88.16 86.4401C88.88 87.2601 89.81 88.3301 91.1 87.4001C93.51 85.6501 95.93 83.9101 98.17 81.9701C99.03 81.2301 99.43 79.9601 100.03 78.9301Z" fill="black"/>
<path fill-rule="evenodd" clip-rule="evenodd" d="M130.38 102.65C130.38 107.48 130.38 111.93 130.38 116.74C129.43 115.95 128.62 115.34 127.9 114.64C122.33 109.25 118.51 102.82 115.99 95.48C112.95 86.64 112.15 77.45 111.2 68.27C111.18 68.05 111.25 67.82 111.3 67.43C117.63 66.44 123.94 65.45 130.51 64.42C130.51 69.09 130.51 73.52 130.51 77.96C130.51 83.81 130.54 89.65 130.49 95.5C130.48 96.16 130.12 96.96 129.67 97.45C127.81 99.47 125.86 101.39 123.79 103.5C124.56 104.36 125.37 105.26 126.34 106.34C127.62 105.16 128.87 104.01 130.38 102.65ZM129.2 76.94C128.99 76.82 128.78 76.69 128.57 76.57C128.36 76.63 128.11 76.66 127.93 76.77C124.6 78.79 121.26 80.79 117.98 82.9C117.58 83.16 117.24 84.36 117.43 84.53C118.17 85.23 119 86.37 120.23 85.48C122.72 83.67 125.22 81.84 127.55 79.84C128.34 79.17 128.66 77.93 129.2 76.94Z" fill="black"/>
<path fill-rule="evenodd" clip-rule="evenodd" d="M30.8001 64.9C36.8501 65.88 42.7801 66.82 48.7101 67.84C49.0901 67.91 49.7001 68.57 49.6701 68.91C48.5301 82.55 46.8101 96.07 38.8001 107.77C36.9401 110.49 34.5001 112.82 32.3001 115.31C31.8901 115.77 31.3201 116.07 30.6101 116.61C30.6101 111.77 30.6101 107.21 30.6101 102.18C32.2201 103.6 33.5301 104.76 34.8401 105.93C35.7501 105.04 36.6101 104.19 37.3801 103.42C35.3501 101.32 33.3401 99.29 31.4101 97.19C30.9701 96.72 30.5201 96.02 30.5201 95.43C30.5101 85.49 30.5601 75.56 30.6101 65.62C30.6101 65.45 30.7001 65.29 30.8001 64.9ZM33.5401 76.41C33.3001 76.54 33.0601 76.67 32.8201 76.81C33.2801 77.84 33.4901 79.11 34.2401 79.85C36.4801 82.06 38.8401 84.17 41.3501 86.04C41.8401 86.41 43.2301 85.59 44.2101 85.31C43.9301 84.66 43.8201 83.77 43.3301 83.39C40.7101 81.34 38.0001 79.4 35.3101 77.45C34.7601 77.06 34.1301 76.76 33.5401 76.41Z" fill="black"/>
<path d="M75.6101 67.46C60.9401 65.24 46.2601 63.0301 31.1501 60.7401C38.6701 53.7601 45.8401 47.1 53.1601 40.3C60.7701 49.3 68.3001 58.18 75.8201 67.07C75.7501 67.21 75.6801 67.33 75.6101 67.46Z" fill="black"/>
<path d="M109.67 86.88C112.24 99.62 117.49 110.43 127.04 119.19C114.67 122.6 102.59 125.94 90 129.41C100.75 116.97 105.81 102.46 109.67 86.88Z" fill="black"/>
<path d="M33.76 119.09C43.71 111 47.6 99.88 51.21 88C54.8 103.29 60.76 117.01 70.84 129.29C58.28 125.83 46.2 122.51 33.76 119.09Z" fill="black"/>
<path d="M61.8301 78.3601C62.7401 78.8301 63.4101 79.1301 64.0401 79.5101C66.7701 81.1801 69.5301 82.8101 72.1901 84.5901C72.7701 84.9801 73.4201 85.9601 73.3101 86.5301C73.1101 87.5401 71.0801 88.0801 70.2701 87.4801C67.9301 85.7501 65.6001 84.0101 63.3401 82.1801C62.2901 81.3301 61.5501 80.2201 61.8301 78.3601Z" fill="white"/>
<path d="M100.03 78.9301C99.4201 79.9601 99.0301 81.2301 98.1701 81.9701C95.9201 83.9101 93.5001 85.6501 91.1001 87.4001C89.8101 88.3401 88.8801 87.2601 88.1601 86.4401C87.9801 86.2401 88.5801 84.9701 89.1001 84.6201C92.0101 82.6801 95.0001 80.8601 97.9801 79.0201C98.4101 78.7601 98.9201 78.6301 99.3901 78.4401C99.6101 78.6001 99.8201 78.7701 100.03 78.9301Z" fill="white"/>
<path d="M129.2 76.9401C128.66 77.9201 128.34 79.1601 127.55 79.8501C125.22 81.8501 122.72 83.6801 120.23 85.4901C119 86.3801 118.17 85.2401 117.43 84.5401C117.24 84.3601 117.58 83.1601 117.98 82.9101C121.25 80.8001 124.6 78.8001 127.93 76.7801C128.12 76.6701 128.36 76.6401 128.57 76.5801C128.78 76.7001 128.99 76.8201 129.2 76.9401Z" fill="white"/>
<path d="M33.5401 76.41C34.1301 76.76 34.7601 77.05 35.3101 77.45C38.0001 79.4 40.7101 81.34 43.3301 83.39C43.8201 83.78 43.9301 84.66 44.2101 85.31C43.2401 85.58 41.8501 86.41 41.3501 86.04C38.8401 84.16 36.4701 82.05 34.2401 79.85C33.4901 79.11 33.2801 77.84 32.8201 76.81C33.0601 76.68 33.3001 76.55 33.5401 76.41Z" fill="white"/>
<path d="M181 64.0001H219.41V68.4301H181V64.0001ZM181 64.0001H185.76V78.3901H181V64.0001ZM181.92 64.0001H183.38C184.84 64.0001 185.97 62.8701 186.77 60.6301C187.57 58.3801 187.98 55.2201 187.98 51.1401V20.3401H192.74V52.7301C192.74 55.8401 192.43 58.4901 191.8 60.6901C191.17 62.8801 190.26 64.5601 189.05 65.7201C187.85 66.8801 186.4 67.4601 184.7 67.4601H181.92V64.0001ZM192.18 20.3301H215.1V24.7601H192.18V20.3301ZM212.49 20.3301H217.25V68.4301H212.49V20.3301ZM217.65 64.0001H222.41V78.3901H217.65V64.0001Z" fill="black"/>
<path d="M231.67 20.3301H236.43V68.4301H231.67V20.3301ZM235.15 45.3401H250.53C252.4 45.3401 254.06 44.9101 255.49 44.0501C256.92 43.1901 258.03 41.9901 258.81 40.4401C259.59 38.9001 259.98 37.1101 259.98 35.0801C259.98 33.0301 259.59 31.2301 258.81 29.6701C258.03 28.1201 256.92 26.9101 255.49 26.0501C254.06 25.1901 252.4 24.7601 250.53 24.7601H235.15V20.3301H250.3C253.17 20.3301 255.69 20.9401 257.88 22.1701C260.06 23.3901 261.76 25.1201 262.96 27.3501C264.16 29.5801 264.76 32.1601 264.76 35.0901C264.76 38.0001 264.16 40.5601 262.96 42.7801C261.76 45.0001 260.07 46.7201 257.88 47.9401C255.7 49.1601 253.17 49.7801 250.3 49.7801H235.15V45.3401Z" fill="black"/>
<path fill-rule="evenodd" clip-rule="evenodd" d="M286.95 20.3301H292.71L310.44 68.4301H305.15L301 56.7501H302.7V52.3201H299.42L289.83 25.3301L280.24 52.3201H277.39V56.7501H278.66L274.51 68.4301H269.22L286.95 20.3301ZM301 56.7501L299.42 52.3201H280.24L278.66 56.7501H301Z" fill="black"/>
<path d="M353.61 20.3301H358.61V68.4301H353.85V27.1101L354.35 29.2301L339.86 61.7501H336.49L322 29.8901L322.5 27.1101V68.4301H317.74V20.3301H322.74L338.19 55.0601L353.61 20.3301Z" fill="black"/>
<path fill-rule="evenodd" clip-rule="evenodd" d="M383.61 20.3301H389.37L407.1 68.4301H401.81L397.66 56.7501H399.36V52.3201H396.08L386.49 25.3301L376.9 52.3201H374.05V56.7501H375.32L371.17 68.4301H365.88L383.61 20.3301ZM397.66 56.7501L396.08 52.3201H376.9L375.32 56.7501H397.66Z" fill="black"/>
<path d="M407.76 20.3301H441.7V24.7601H407.76V20.3301ZM422.35 22.2801H427.11V68.4301H422.35V22.2801Z" fill="black"/>
<path d="M477.76 68.4001V26.2901L480.34 24.0701L451.69 68.4001H446.99V20.3301H451.75V62.6701L449.8 64.3201L477.88 20.3201H482.51V68.4001H477.76Z" fill="black"/>
<path d="M499.64 51.9201C497.51 50.7301 495.89 48.9901 494.78 46.7101C493.67 44.4301 493.11 41.6801 493.11 38.4601V20.3301H497.87V38.6901C497.87 41.9801 498.75 44.5201 500.52 46.3301C502.28 48.1401 504.78 49.0401 508 49.0401C511.88 49.0401 514.88 48.0801 517 46.1601C519.12 44.2401 520.17 41.5301 520.17 38.0201V34.2201H522.29V37.7901C522.29 41.1401 521.71 44.0101 520.54 46.3901C519.37 48.7701 517.67 50.5901 515.43 51.8301C513.19 53.0801 510.5 53.7001 507.34 53.7001C504.33 53.7101 501.77 53.1201 499.64 51.9201ZM520.17 20.3301H524.93V68.4301H520.17V20.3301Z" fill="black"/>
<path d="M536.84 20.3301H541.6V68.4301H536.84V20.3301ZM540.11 20.3301H567.73V24.7601H540.11V20.3301ZM540.11 42.3301H564.09V46.7601H540.11V42.3301ZM540.11 64.0001H567.73V68.4301H540.11V64.0001Z" fill="black"/>
<path d="M584.29 66.7101C581.76 65.2301 579.81 63.1401 578.42 60.4201C577.03 57.7001 576.34 54.5701 576.34 50.9901V37.8001C576.34 34.2301 577.03 31.0901 578.42 28.3701C579.81 25.6601 581.77 23.5601 584.29 22.0701C586.81 20.5801 589.74 19.8401 593.07 19.8401C595.83 19.8401 598.36 20.4001 600.68 21.5301C603 22.6501 604.93 24.2501 606.49 26.3101C608.04 28.3701 609.1 30.7601 609.65 33.4701H604.89C604.36 31.6601 603.5 30.0601 602.29 28.6701C601.08 27.2801 599.68 26.2001 598.07 25.4301C596.46 24.6601 594.8 24.2701 593.07 24.2701C590.69 24.2701 588.59 24.8301 586.78 25.9601C584.97 27.0801 583.57 28.6701 582.58 30.7101C581.59 32.7501 581.09 35.1201 581.09 37.8101V51.0001C581.09 53.6901 581.59 56.0601 582.58 58.1001C583.57 60.1401 584.97 61.7201 586.78 62.8301C588.59 63.9401 590.68 64.5001 593.07 64.5001C594.79 64.5001 596.46 64.1401 598.07 63.4101C599.68 62.6801 601.09 61.6201 602.29 60.2301C603.49 58.8401 604.36 57.2001 604.89 55.3001H609.65C609.1 58.0101 608.04 60.4001 606.47 62.4601C604.9 64.5201 602.96 66.1201 600.65 67.2401C598.33 68.3701 595.81 68.9301 593.07 68.9301C589.74 68.9301 586.82 68.1901 584.29 66.7101Z" fill="black"/>
<path d="M619.24 20.3301H624V68.4301H619.24V20.3301ZM622.51 42.3301H634.92V46.7601H622.51V42.3301ZM630.16 42.6901L648.25 20.3301H654.07L634.39 45.1401L630.16 42.6901ZM630.16 46.2701L634.36 43.7901L656.09 68.4301H649.87L630.16 46.2701Z" fill="black"/>
<path d="M693.47 68.4001V26.2901L696.05 24.0701L667.4 68.4001H662.7V20.3301H667.46V62.6701L665.51 64.3201L693.59 20.3201H698.22V68.4001H693.47Z" fill="black"/>
<path d="M740.91 68.4001V26.2901L743.49 24.07L714.84 68.4001H710.14V20.33H714.9V62.67L712.95 64.32L741.03 20.32H745.66V68.4001H740.91ZM738.89 6.80005C738.89 10.02 737.93 12.51 736.01 14.26C734.09 16.01 731.38 16.89 727.87 16.89H727.61C724.1 16.89 721.39 16.01 719.47 14.26C717.55 12.51 716.59 10.02 716.59 6.80005L720.89 6.87005C720.89 8.83005 721.48 10.36 722.66 11.45C723.84 12.54 725.49 13.09 727.61 13.09H727.87C729.99 13.09 731.64 12.54 732.82 11.45C734 10.36 734.59 8.83005 734.59 6.87005L738.89 6.80005Z" fill="black"/>
<path d="M178.05 101.63H211.99V106.06H178.05V101.63ZM192.64 103.58H197.4V149.73H192.64V103.58Z" fill="black"/>
<path d="M217.28 101.63H222.04V149.73H217.28V101.63ZM220.56 101.63H248.18V106.06H220.56V101.63ZM220.56 123.63H244.54V128.06H220.56V123.63ZM220.56 145.3H248.18V149.73H220.56V145.3Z" fill="black"/>
<path fill-rule="evenodd" clip-rule="evenodd" d="M270.87 101.63H276.63L294.36 149.73H289.07L284.92 138.05H286.62V133.62H283.34L273.75 106.63L264.16 133.62H261.31V138.05H262.58L258.43 149.73H253.14L270.87 101.63ZM284.92 138.05L283.34 133.62H264.16L262.58 138.05H284.92Z" fill="black"/>
<path d="M295.02 101.63H328.96V106.06H295.02V101.63ZM309.61 103.58H314.37V149.73H309.61V103.58Z" fill="black"/>
<path d="M334.26 101.63H339.02V149.73H334.26V101.63ZM337.73 126.64H353.11C354.98 126.64 356.64 126.21 358.07 125.35C359.5 124.49 360.61 123.29 361.39 121.74C362.17 120.2 362.56 118.41 362.56 116.38C362.56 114.33 362.17 112.53 361.39 110.97C360.61 109.42 359.5 108.21 358.07 107.35C356.64 106.49 354.98 106.06 353.11 106.06H337.73V101.63H352.88C355.75 101.63 358.27 102.24 360.46 103.47C362.64 104.69 364.34 106.42 365.54 108.65C366.74 110.88 367.34 113.46 367.34 116.39C367.34 119.3 366.74 121.86 365.54 124.08C364.34 126.3 362.65 128.02 360.46 129.24C358.27 130.46 355.75 131.08 352.88 131.08H337.73V126.64Z" fill="black"/>
</svg>
