<svg version="1.2" baseProfile="tiny-ps" xmlns="http://www.w3.org/2000/svg" viewBox="0 0 842 199" width="842" height="199">
	<title>logo_new-svg</title>
	<style>
		tspan { white-space:pre }
		.shp0 { fill: #000000 } 
		.shp1 { fill: #ffffff } 
		.shp2 { fill: #000000;stroke: #000000;stroke-width: 0.5 } 
	</style>
	<g id="Layer">
		<path id="Layer" fill-rule="evenodd" class="shp0" d="M151.42 153.07C103.87 153.07 56.39 153.07 8.8 153.07C8.8 105.54 8.8 58.11 8.8 10.56C56.32 10.56 103.8 10.56 151.42 10.56C151.42 57.99 151.42 105.41 151.42 153.07ZM134.33 90.27C134.38 90.27 134.43 90.27 134.49 90.27C134.49 80.67 134.52 71.08 134.45 61.48C134.44 60.54 134.06 59.4 133.45 58.69C125.67 49.48 117.8 40.35 110.01 31.16C109.19 30.2 108.42 29.89 107.18 30C89.17 31.61 71.16 33.16 53.16 34.79C52.28 34.87 51.3 35.45 50.65 36.09C43 43.49 35.41 50.96 27.77 58.38C26.86 59.27 26.46 60.15 26.47 61.44C26.56 80.63 26.62 99.82 26.62 119.01C26.62 120.36 27.01 120.93 28.32 121.3C45.14 126.08 61.94 130.94 78.76 135.72C79.76 136 80.97 136.02 81.97 135.74C98.92 131.01 115.86 126.2 132.81 121.45C133.97 121.12 134.37 120.64 134.36 119.41C134.31 109.7 134.33 99.99 134.33 90.27Z" />
		<path id="Layer" fill-rule="evenodd" class="shp1" d="M134.33 90.27C134.33 99.98 134.31 109.69 134.36 119.41C134.37 120.64 133.97 121.13 132.81 121.45C115.86 126.2 98.93 131.01 81.97 135.74C80.97 136.02 79.76 136 78.76 135.72C61.94 130.94 45.14 126.09 28.32 121.3C27.01 120.93 26.62 120.36 26.62 119.01C26.61 99.82 26.56 80.63 26.47 61.44C26.46 60.16 26.86 59.27 27.77 58.38C35.41 50.96 43 43.49 50.65 36.09C51.31 35.46 52.29 34.87 53.16 34.79C71.16 33.16 89.17 31.61 107.18 30C108.42 29.89 109.19 30.2 110.01 31.16C117.8 40.36 125.67 49.49 133.45 58.69C134.05 59.4 134.44 60.54 134.45 61.48C134.52 71.08 134.49 80.67 134.49 90.27C134.43 90.27 134.38 90.27 134.33 90.27ZM57.24 38.57C57.51 39.02 57.6 39.22 57.74 39.39C65.42 48.51 73.13 57.61 80.77 66.77C81.61 67.78 82.46 67.77 83.54 67.61C97.88 65.49 112.22 63.38 126.56 61.27C127.62 61.11 128.66 60.91 129.87 60.69C129.58 60.27 129.47 60.06 129.32 59.89C122.2 51.67 115.1 43.43 107.92 35.27C107.42 34.7 106.32 34.3 105.54 34.36C97.21 35.01 88.88 35.75 80.55 36.49C72.89 37.17 65.2 37.86 57.24 38.57ZM53.06 68.12C53.06 69.24 52.95 70.17 53.08 71.08C53.82 76.58 54.3 82.14 55.46 87.55C58.45 101.49 63.82 114.42 72.89 125.6C74.36 127.41 76.18 128.95 77.83 130.61C77.99 130.52 78.14 130.42 78.3 130.33C78.3 127.72 78.15 125.1 78.35 122.5C78.51 120.32 77.79 118.83 76.17 117.37C72.18 113.79 68.38 109.99 64.35 106.14C65.4 105.18 66.33 104.32 67.37 103.37C70.95 106.8 74.54 110.24 78.13 113.68C78.35 113.44 78.42 113.4 78.42 113.36C78.44 99.97 78.47 86.59 78.43 73.2C78.43 72.79 77.77 72.1 77.34 72.03C69.32 70.69 61.3 69.43 53.06 68.12ZM108.26 68.11C107.56 68.14 107.22 68.13 106.89 68.18C99.27 69.39 91.65 70.65 84.02 71.79C82.73 71.98 82.44 72.47 82.44 73.69C82.48 86.56 82.46 99.43 82.47 112.3C82.47 112.73 82.56 113.15 82.63 113.84C86.45 110.21 90.07 106.77 93.78 103.25C94.67 104.31 95.4 105.19 96.13 106.07C95.94 105.96 95.75 105.85 95.55 105.74C91.58 109.95 87.61 114.17 83.65 118.39C83.26 118.81 82.65 119.28 82.64 119.74C82.55 123.22 82.59 126.69 82.59 130.17C82.8 130.28 83.01 130.4 83.21 130.51C85.31 128.2 87.72 126.1 89.46 123.55C98.86 109.78 105.07 94.7 107.33 78.11C107.79 74.84 107.95 71.52 108.26 68.11ZM130.38 102.65C128.88 104.02 127.62 105.16 126.33 106.34C125.36 105.26 124.56 104.37 123.78 103.5C125.85 101.39 127.8 99.47 129.66 97.45C130.12 96.96 130.47 96.16 130.48 95.5C130.54 89.65 130.51 83.81 130.5 77.96C130.5 73.53 130.5 69.1 130.5 64.42C123.94 65.45 117.62 66.44 111.29 67.43C111.24 67.82 111.16 68.05 111.19 68.27C112.14 77.45 112.94 86.63 115.98 95.48C118.5 102.82 122.32 109.25 127.89 114.64C128.61 115.34 129.43 115.94 130.37 116.74C130.38 111.92 130.38 107.47 130.38 102.65ZM30.8 64.9C30.7 65.28 30.61 65.45 30.61 65.62C30.56 75.56 30.51 85.49 30.52 95.43C30.52 96.02 30.98 96.72 31.41 97.19C33.35 99.28 35.35 101.31 37.38 103.42C36.6 104.19 35.74 105.04 34.84 105.93C33.52 104.76 32.21 103.6 30.61 102.18C30.61 107.21 30.61 111.77 30.61 116.61C31.32 116.07 31.89 115.77 32.3 115.31C34.51 112.83 36.94 110.49 38.8 107.77C46.81 96.08 48.53 82.56 49.67 68.91C49.7 68.57 49.1 67.9 48.71 67.84C42.78 66.83 36.85 65.88 30.8 64.9ZM75.61 67.46C75.68 67.33 75.75 67.21 75.82 67.08C68.3 58.19 60.78 49.3 53.16 40.31C45.85 47.1 38.67 53.77 31.15 60.75C46.27 63.03 60.94 65.24 75.61 67.46ZM109.67 86.88C105.8 102.46 100.75 116.98 90 129.42C102.59 125.94 114.67 122.61 127.04 119.2C117.49 110.43 112.25 99.62 109.67 86.88ZM33.76 119.09C46.2 122.51 58.28 125.83 70.83 129.28C60.75 117 54.79 103.28 51.2 87.99C47.6 99.88 43.71 111 33.76 119.09Z" />
		<path id="Layer" class="shp0" d="M57.24 38.57C65.2 37.86 72.88 37.17 80.56 36.49C88.89 35.76 97.21 35.01 105.55 34.36C106.33 34.3 107.42 34.69 107.93 35.27C115.11 43.44 122.21 51.67 129.33 59.89C129.48 60.06 129.59 60.26 129.88 60.69C128.67 60.9 127.62 61.11 126.57 61.27C112.23 63.39 97.89 65.49 83.55 67.61C82.47 67.77 81.62 67.78 80.78 66.77C73.14 57.61 65.43 48.51 57.75 39.39C57.6 39.22 57.51 39.01 57.24 38.57Z" />
		<path id="Layer" fill-rule="evenodd" class="shp0" d="M53.06 68.12C61.29 69.43 69.32 70.69 77.32 72.02C77.75 72.09 78.41 72.79 78.41 73.19C78.45 86.58 78.42 99.96 78.4 113.35C78.4 113.39 78.33 113.43 78.11 113.67C74.52 110.23 70.94 106.8 67.35 103.36C66.31 104.32 65.37 105.17 64.33 106.13C68.36 109.98 72.16 113.78 76.15 117.36C77.78 118.82 78.5 120.31 78.33 122.49C78.14 125.09 78.28 127.71 78.28 130.32C78.12 130.41 77.97 130.51 77.81 130.6C76.15 128.94 74.34 127.4 72.87 125.59C63.8 114.42 58.43 101.48 55.44 87.54C54.28 82.13 53.8 76.57 53.06 71.07C52.96 70.17 53.06 69.24 53.06 68.12ZM61.83 78.36C61.54 80.23 62.29 81.33 63.34 82.17C65.6 84 67.94 85.74 70.27 87.47C71.08 88.07 73.11 87.53 73.31 86.52C73.42 85.95 72.77 84.97 72.19 84.58C69.53 82.81 66.78 81.17 64.04 79.5C63.42 79.12 62.74 78.83 61.83 78.36Z" />
		<path id="Layer" fill-rule="evenodd" class="shp0" d="M108.26 68.11C107.96 71.52 107.8 74.84 107.35 78.12C105.09 94.71 98.88 109.79 89.48 123.56C87.74 126.11 85.33 128.21 83.23 130.52C83.02 130.41 82.81 130.29 82.61 130.18C82.61 126.7 82.57 123.22 82.66 119.75C82.67 119.29 83.28 118.81 83.67 118.4C87.63 114.18 91.6 109.97 95.57 105.75C95.76 105.86 95.95 105.97 96.15 106.08C95.42 105.2 94.68 104.32 93.8 103.26C90.1 106.78 86.48 110.22 82.65 113.85C82.57 113.16 82.49 112.73 82.49 112.31C82.48 99.44 82.5 86.57 82.46 73.7C82.46 72.48 82.75 71.99 84.04 71.8C91.67 70.65 99.29 69.4 106.91 68.19C107.21 68.12 107.56 68.14 108.26 68.11ZM100.03 78.93C99.82 78.77 99.6 78.6 99.39 78.44C98.92 78.63 98.41 78.76 97.98 79.02C95 80.86 92.01 82.67 89.1 84.62C88.57 84.97 87.98 86.24 88.16 86.44C88.88 87.26 89.81 88.33 91.1 87.4C93.51 85.65 95.93 83.91 98.17 81.97C99.03 81.23 99.43 79.96 100.03 78.93Z" />
		<path id="Layer" fill-rule="evenodd" class="shp0" d="M130.38 102.65C130.38 107.48 130.38 111.93 130.38 116.74C129.43 115.95 128.62 115.34 127.9 114.64C122.33 109.25 118.51 102.82 115.99 95.48C112.95 86.64 112.15 77.45 111.2 68.27C111.18 68.05 111.25 67.82 111.3 67.43C117.63 66.44 123.94 65.45 130.51 64.42C130.51 69.09 130.51 73.52 130.51 77.96C130.51 83.81 130.54 89.65 130.49 95.5C130.48 96.16 130.12 96.96 129.67 97.45C127.81 99.47 125.86 101.39 123.79 103.5C124.56 104.36 125.37 105.26 126.34 106.34C127.62 105.16 128.87 104.01 130.38 102.65ZM129.2 76.94C128.99 76.82 128.78 76.69 128.57 76.57C128.36 76.63 128.11 76.66 127.93 76.77C124.6 78.79 121.26 80.79 117.98 82.9C117.58 83.16 117.24 84.36 117.43 84.53C118.17 85.23 119 86.37 120.23 85.48C122.72 83.67 125.22 81.84 127.55 79.84C128.34 79.17 128.66 77.93 129.2 76.94Z" />
		<path id="Layer" fill-rule="evenodd" class="shp0" d="M30.8 64.9C36.85 65.88 42.78 66.82 48.71 67.84C49.09 67.91 49.7 68.57 49.67 68.91C48.53 82.55 46.81 96.07 38.8 107.77C36.94 110.49 34.5 112.82 32.3 115.31C31.89 115.77 31.32 116.07 30.61 116.61C30.61 111.77 30.61 107.21 30.61 102.18C32.22 103.6 33.53 104.76 34.84 105.93C35.75 105.04 36.61 104.19 37.38 103.42C35.35 101.32 33.34 99.29 31.41 97.19C30.97 96.72 30.52 96.02 30.52 95.43C30.51 85.49 30.56 75.56 30.61 65.62C30.61 65.45 30.7 65.29 30.8 64.9ZM33.54 76.41C33.3 76.54 33.06 76.67 32.82 76.81C33.28 77.84 33.49 79.11 34.24 79.85C36.48 82.06 38.84 84.17 41.35 86.04C41.84 86.41 43.23 85.59 44.21 85.31C43.93 84.66 43.82 83.77 43.33 83.39C40.71 81.34 38 79.4 35.31 77.45C34.76 77.06 34.13 76.76 33.54 76.41Z" />
		<path id="Layer" class="shp0" d="M75.61 67.46C60.94 65.24 46.26 63.03 31.15 60.74C38.67 53.76 45.84 47.1 53.16 40.3C60.77 49.3 68.3 58.18 75.82 67.07C75.75 67.21 75.68 67.33 75.61 67.46Z" />
		<path id="Layer" class="shp0" d="M109.67 86.88C112.24 99.62 117.49 110.43 127.04 119.19C114.67 122.6 102.59 125.94 90 129.41C100.75 116.97 105.81 102.46 109.67 86.88Z" />
		<path id="Layer" class="shp0" d="M33.76 119.09C43.71 111 47.6 99.88 51.21 88C54.8 103.29 60.76 117.01 70.84 129.29C58.28 125.83 46.2 122.51 33.76 119.09Z" />
		<path id="Layer" class="shp1" d="M61.83 78.36C62.74 78.83 63.41 79.13 64.04 79.51C66.77 81.18 69.53 82.81 72.19 84.59C72.77 84.98 73.42 85.96 73.31 86.53C73.11 87.54 71.08 88.08 70.27 87.48C67.93 85.75 65.6 84.01 63.34 82.18C62.29 81.33 61.55 80.22 61.83 78.36Z" />
		<path id="Layer" class="shp1" d="M100.03 78.93C99.42 79.96 99.03 81.23 98.17 81.97C95.92 83.91 93.5 85.65 91.1 87.4C89.81 88.34 88.88 87.26 88.16 86.44C87.98 86.24 88.58 84.97 89.1 84.62C92.01 82.68 95 80.86 97.98 79.02C98.41 78.76 98.92 78.63 99.39 78.44C99.61 78.6 99.82 78.77 100.03 78.93Z" />
		<path id="Layer" class="shp1" d="M129.2 76.94C128.66 77.92 128.34 79.16 127.55 79.85C125.22 81.85 122.72 83.68 120.23 85.49C119 86.38 118.17 85.24 117.43 84.54C117.24 84.36 117.58 83.16 117.98 82.91C121.25 80.8 124.6 78.8 127.93 76.78C128.12 76.67 128.36 76.64 128.57 76.58C128.78 76.7 128.99 76.82 129.2 76.94Z" />
		<path id="Layer" class="shp1" d="M33.54 76.41C34.13 76.76 34.76 77.05 35.31 77.45C38 79.4 40.71 81.34 43.33 83.39C43.82 83.78 43.93 84.66 44.21 85.31C43.24 85.58 41.85 86.41 41.35 86.04C38.84 84.16 36.47 82.05 34.24 79.85C33.49 79.11 33.28 77.84 32.82 76.81C33.06 76.68 33.3 76.55 33.54 76.41Z" />
	</g>
	<g id="Layer">
		<g id="Layer">
			<path id="Layer" class="shp0" d="M181 64L219.41 64L219.41 68.43L181 68.43L181 64ZM181 64L185.76 64L185.76 78.39L181 78.39L181 64ZM181.92 64L183.38 64C184.84 64 185.97 62.87 186.77 60.63C187.57 58.38 187.98 55.22 187.98 51.14L187.98 20.34L192.74 20.34L192.74 52.73C192.74 55.84 192.43 58.49 191.8 60.69C191.17 62.88 190.26 64.56 189.05 65.72C187.85 66.88 186.4 67.46 184.7 67.46L181.92 67.46L181.92 64ZM192.18 20.33L215.1 20.33L215.1 24.76L192.18 24.76L192.18 20.33ZM212.49 20.33L217.25 20.33L217.25 68.43L212.49 68.43L212.49 20.33ZM217.65 64L222.41 64L222.41 78.39L217.65 78.39L217.65 64Z" />
			<path id="Layer" class="shp0" d="M231.67 20.33L236.43 20.33L236.43 68.43L231.67 68.43L231.67 20.33ZM235.15 45.34L250.53 45.34C252.4 45.34 254.06 44.91 255.49 44.05C256.92 43.19 258.03 41.99 258.81 40.44C259.59 38.9 259.98 37.11 259.98 35.08C259.98 33.03 259.59 31.23 258.81 29.67C258.03 28.12 256.92 26.91 255.49 26.05C254.06 25.19 252.4 24.76 250.53 24.76L235.15 24.76L235.15 20.33L250.3 20.33C253.17 20.33 255.69 20.94 257.88 22.17C260.06 23.39 261.76 25.12 262.96 27.35C264.16 29.58 264.76 32.16 264.76 35.09C264.76 38 264.16 40.56 262.96 42.78C261.76 45 260.07 46.72 257.88 47.94C255.7 49.16 253.17 49.78 250.3 49.78L235.15 49.78L235.15 45.34L235.15 45.34Z" />
			<path id="Layer" fill-rule="evenodd" class="shp0" d="M286.95 20.33L292.71 20.33L310.44 68.43L305.15 68.43L301 56.75L302.7 56.75L302.7 52.32L299.42 52.32L289.83 25.33L280.24 52.32L277.39 52.32L277.39 56.75L278.66 56.75L274.51 68.43L269.22 68.43L286.95 20.33ZM301 56.75L299.42 52.32L280.24 52.32L278.66 56.75L301 56.75Z" />
			<path id="Layer" class="shp0" d="M353.61 20.33L358.61 20.33L358.61 68.43L353.85 68.43L353.85 27.11L354.35 29.23L339.86 61.75L336.49 61.75L322 29.89L322.5 27.11L322.5 68.43L317.74 68.43L317.74 20.33L322.74 20.33L338.19 55.06L353.61 20.33Z" />
			<path id="Layer" fill-rule="evenodd" class="shp0" d="M383.61 20.33L389.37 20.33L407.1 68.43L401.81 68.43L397.66 56.75L399.36 56.75L399.36 52.32L396.08 52.32L386.49 25.33L376.9 52.32L374.05 52.32L374.05 56.75L375.32 56.75L371.17 68.43L365.88 68.43L383.61 20.33ZM397.66 56.75L396.08 52.32L376.9 52.32L375.32 56.75L397.66 56.75Z" />
			<path id="Layer" class="shp0" d="M407.76 20.33L441.7 20.33L441.7 24.76L407.76 24.76L407.76 20.33ZM422.35 22.28L427.11 22.28L427.11 68.43L422.35 68.43L422.35 22.28Z" />
			<path id="Layer" class="shp0" d="M477.76 68.4L477.76 26.29L480.34 24.07L451.69 68.4L446.99 68.4L446.99 20.33L451.75 20.33L451.75 62.67L449.8 64.32L477.88 20.32L482.51 20.32L482.51 68.4L477.76 68.4Z" />
			<path id="Layer" class="shp0" d="M499.64 51.92C497.51 50.73 495.89 48.99 494.78 46.71C493.67 44.43 493.11 41.68 493.11 38.46L493.11 20.33L497.87 20.33L497.87 38.69C497.87 41.98 498.75 44.52 500.52 46.33C502.28 48.14 504.78 49.04 508 49.04C511.88 49.04 514.88 48.08 517 46.16C519.12 44.24 520.17 41.53 520.17 38.02L520.17 34.22L522.29 34.22L522.29 37.79C522.29 41.14 521.71 44.01 520.54 46.39C519.37 48.77 517.67 50.59 515.43 51.83C513.19 53.08 510.5 53.7 507.34 53.7C504.33 53.71 501.77 53.12 499.64 51.92ZM520.17 20.33L524.93 20.33L524.93 68.43L520.17 68.43L520.17 20.33Z" />
			<path id="Layer" class="shp0" d="M536.84 20.33L541.6 20.33L541.6 68.43L536.84 68.43L536.84 20.33ZM540.11 20.33L567.73 20.33L567.73 24.76L540.11 24.76L540.11 20.33ZM540.11 42.33L564.09 42.33L564.09 46.76L540.11 46.76L540.11 42.33ZM540.11 64L567.73 64L567.73 68.43L540.11 68.43L540.11 64Z" />
			<path id="Layer" class="shp0" d="M584.29 66.71C581.76 65.23 579.81 63.14 578.42 60.42C577.03 57.7 576.34 54.57 576.34 50.99L576.34 37.8C576.34 34.23 577.03 31.09 578.42 28.37C579.81 25.66 581.77 23.56 584.29 22.07C586.81 20.58 589.74 19.84 593.07 19.84C595.83 19.84 598.36 20.4 600.68 21.53C603 22.65 604.93 24.25 606.49 26.31C608.04 28.37 609.1 30.76 609.65 33.47L604.89 33.47C604.36 31.66 603.5 30.06 602.29 28.67C601.08 27.28 599.68 26.2 598.07 25.43C596.46 24.66 594.8 24.27 593.07 24.27C590.69 24.27 588.59 24.83 586.78 25.96C584.97 27.08 583.57 28.67 582.58 30.71C581.59 32.75 581.09 35.12 581.09 37.81L581.09 51C581.09 53.69 581.59 56.06 582.58 58.1C583.57 60.14 584.97 61.72 586.78 62.83C588.59 63.94 590.68 64.5 593.07 64.5C594.79 64.5 596.46 64.14 598.07 63.41C599.68 62.68 601.09 61.62 602.29 60.23C603.49 58.84 604.36 57.2 604.89 55.3L609.65 55.3C609.1 58.01 608.04 60.4 606.47 62.46C604.9 64.52 602.96 66.12 600.65 67.24C598.33 68.37 595.81 68.93 593.07 68.93C589.74 68.93 586.82 68.19 584.29 66.71Z" />
			<path id="Layer" class="shp0" d="M619.24 20.33L624 20.33L624 68.43L619.24 68.43L619.24 20.33ZM622.51 42.33L634.92 42.33L634.92 46.76L622.51 46.76L622.51 42.33ZM630.16 42.69L648.25 20.33L654.07 20.33L634.39 45.14L630.16 42.69ZM630.16 46.27L634.36 43.79L656.09 68.43L649.87 68.43L630.16 46.27Z" />
			<path id="Layer" class="shp0" d="M693.47 68.4L693.47 26.29L696.05 24.07L667.4 68.4L662.7 68.4L662.7 20.33L667.46 20.33L667.46 62.67L665.51 64.32L693.59 20.32L698.22 20.32L698.22 68.4L693.47 68.4Z" />
			<path id="Layer" class="shp0" d="M740.91 68.4L740.91 26.29L743.49 24.07L714.84 68.4L710.14 68.4L710.14 20.33L714.9 20.33L714.9 62.67L712.95 64.32L741.03 20.32L745.66 20.32L745.66 68.4L740.91 68.4ZM738.89 6.8C738.89 10.02 737.93 12.51 736.01 14.26C734.09 16.01 731.38 16.89 727.87 16.89L727.61 16.89C724.1 16.89 721.39 16.01 719.47 14.26C717.55 12.51 716.59 10.02 716.59 6.8L720.89 6.87C720.89 8.83 721.48 10.36 722.66 11.45C723.84 12.54 725.49 13.09 727.61 13.09L727.87 13.09C729.99 13.09 731.64 12.54 732.82 11.45C734 10.36 734.59 8.83 734.59 6.87L738.89 6.8Z" />
			<path id="Layer" class="shp0" d="M178.05 101.63L211.99 101.63L211.99 106.06L178.05 106.06L178.05 101.63ZM192.64 103.58L197.4 103.58L197.4 149.73L192.64 149.73L192.64 103.58Z" />
			<path id="Layer" class="shp0" d="M217.28 101.63L222.04 101.63L222.04 149.73L217.28 149.73L217.28 101.63ZM220.56 101.63L248.18 101.63L248.18 106.06L220.56 106.06L220.56 101.63ZM220.56 123.63L244.54 123.63L244.54 128.06L220.56 128.06L220.56 123.63ZM220.56 145.3L248.18 145.3L248.18 149.73L220.56 149.73L220.56 145.3Z" />
			<path id="Layer" fill-rule="evenodd" class="shp0" d="M270.87 101.63L276.63 101.63L294.36 149.73L289.07 149.73L284.92 138.05L286.62 138.05L286.62 133.62L283.34 133.62L273.75 106.63L264.16 133.62L261.31 133.62L261.31 138.05L262.58 138.05L258.43 149.73L253.14 149.73L270.87 101.63ZM284.92 138.05L283.34 133.62L264.16 133.62L262.58 138.05L284.92 138.05Z" />
			<path id="Layer" class="shp0" d="M295.02 101.63L328.96 101.63L328.96 106.06L295.02 106.06L295.02 101.63ZM309.61 103.58L314.37 103.58L314.37 149.73L309.61 149.73L309.61 103.58Z" />
			<path id="Layer" class="shp0" d="M334.26 101.63L339.02 101.63L339.02 149.73L334.26 149.73L334.26 101.63ZM337.73 126.64L353.11 126.64C354.98 126.64 356.64 126.21 358.07 125.35C359.5 124.49 360.61 123.29 361.39 121.74C362.17 120.2 362.56 118.41 362.56 116.38C362.56 114.33 362.17 112.53 361.39 110.97C360.61 109.42 359.5 108.21 358.07 107.35C356.64 106.49 354.98 106.06 353.11 106.06L337.73 106.06L337.73 101.63L352.88 101.63C355.75 101.63 358.27 102.24 360.46 103.47C362.64 104.69 364.34 106.42 365.54 108.65C366.74 110.88 367.34 113.46 367.34 116.39C367.34 119.3 366.74 121.86 365.54 124.08C364.34 126.3 362.65 128.02 360.46 129.24C358.27 130.46 355.75 131.08 352.88 131.08L337.73 131.08L337.73 126.64Z" />
		</g>
	</g>
	<g id="Layer">
		<g id="Layer">
			<path id="Layer" class="shp2" d="M11.47 172.95L12.49 172.95L12.49 179.33L16.06 179.33L21.42 187.5L20.25 187.5L15.46 180.21L12.49 180.21L12.49 187.5L11.47 187.5L11.47 172.95ZM15.35 179.61L17.58 175.43C18.83 173.09 19.42 172.67 20.53 172.67C20.73 172.67 20.94 172.71 21.1 172.77L20.91 173.79C20.77 173.74 20.58 173.7 20.45 173.7C19.83 173.7 19.42 173.93 18.39 175.83L16.27 179.79L15.35 179.61Z" />
			<path id="Layer" fill-rule="evenodd" class="shp2" d="M23.24 180.17C23.24 175.55 25.5 172.68 28.68 172.68C31.85 172.68 34.12 175.55 34.12 180.17C34.12 184.8 31.86 187.76 28.68 187.76C25.51 187.76 23.24 184.8 23.24 180.17ZM33.04 180.17C33.04 176.13 31.28 173.61 28.67 173.61C26.06 173.61 24.3 176.13 24.3 180.17C24.3 184.23 26.06 186.83 28.67 186.83C31.28 186.83 33.04 184.23 33.04 180.17Z" />
			<path id="Layer" class="shp2" d="M37.08 172.95L38.43 172.95L40.98 179.78L41.88 182.31L41.97 182.31L42.83 179.78L45.41 172.95L46.76 172.95L46.76 187.5L45.77 187.5L45.77 177.57C45.77 176.53 45.86 175.12 45.9 174.12L45.83 174.12L45.03 176.61L42.3 183.62L41.51 183.62L38.8 176.61L37.95 174.12L37.9 174.12C37.95 175.12 38.05 176.53 38.05 177.57L38.05 187.5L37.08 187.5L37.08 172.95Z" />
			<path id="Layer" class="shp2" d="M50.49 172.95L51.48 172.95L51.48 181.87C51.48 183.28 51.4 184.69 51.35 186.11L51.43 186.11L52.97 183.2L58.72 172.95L59.85 172.95L59.85 187.5L58.86 187.5L58.86 178.46C58.86 177.05 58.94 175.73 58.99 174.33L58.9 174.33L57.36 177.24L51.61 187.49L50.48 187.49L50.48 172.95L50.49 172.95Z" />
			<path id="Layer" class="shp2" d="M67.9 173.82L62.84 173.82L62.84 172.94L73.99 172.94L73.99 173.82L68.93 173.82L68.93 187.49L67.9 187.49L67.9 173.82Z" />
			<path id="Layer" class="shp2" d="M77.84 172.95L86.45 172.95L86.45 173.83L78.86 173.83L78.86 179.34L85.25 179.34L85.25 180.22L78.86 180.22L78.86 186.63L86.67 186.63L86.67 187.51L77.84 187.51L77.84 172.95Z" />
			<path id="Layer" class="shp2" d="M94.4 173.82L89.34 173.82L89.34 172.94L100.49 172.94L100.49 173.82L95.43 173.82L95.43 187.49L94.4 187.49L94.4 173.82Z" />
			<path id="Layer" class="shp2" d="M116.73 172.95L126.07 172.95L126.07 187.5L125.05 187.5L125.05 173.83L117.76 173.83L117.76 187.5L116.74 187.5L116.74 172.95L116.73 172.95Z" />
			<path id="Layer" fill-rule="evenodd" class="shp2" d="M129.21 180.17C129.21 175.55 131.47 172.68 134.65 172.68C137.82 172.68 140.09 175.55 140.09 180.17C140.09 184.8 137.83 187.76 134.65 187.76C131.47 187.76 129.21 184.8 129.21 180.17ZM139.01 180.17C139.01 176.13 137.25 173.61 134.64 173.61C132.04 173.61 130.27 176.13 130.27 180.17C130.27 184.23 132.03 186.83 134.64 186.83C137.25 186.83 139.01 184.23 139.01 180.17Z" />
			<path id="Layer" class="shp2" d="M157.17 172.95L158.19 172.95L158.19 179.33L161.76 179.33L167.12 187.5L165.95 187.5L161.16 180.21L158.19 180.21L158.19 187.5L157.17 187.5L157.17 172.95L157.17 172.95ZM161.05 179.61L163.28 175.43C164.53 173.09 165.12 172.67 166.23 172.67C166.43 172.67 166.64 172.71 166.8 172.77L166.61 173.79C166.47 173.74 166.28 173.7 166.15 173.7C165.53 173.7 165.12 173.93 164.09 175.83L161.97 179.79L161.05 179.61Z" />
			<path id="Layer" class="shp2" d="M170.47 187.57L170.74 186.6C170.96 186.69 171.23 186.74 171.57 186.74C172.69 186.74 173.25 186.29 173.71 185.26L174.08 184.32L169.1 172.95L170.19 172.95L173.49 180.7L174.53 183.22L174.62 183.22L175.58 180.7L178.63 172.95L179.69 172.95L174.77 185.24C174.14 186.81 173.25 187.77 171.66 187.77C171.14 187.76 170.86 187.71 170.47 187.57Z" />
			<path id="Layer" class="shp2" d="M181.14 187.58L181.4 186.6C181.62 186.68 181.8 186.73 182.02 186.73C182.8 186.73 183.38 186.22 184.08 182.59C184.7 179.35 185.2 176.41 185.81 172.95L192.29 172.95L192.29 187.5L191.27 187.5L191.27 173.83L186.63 173.83C186.09 176.83 185.63 179.73 185.07 182.71C184.3 186.91 183.51 187.76 182.12 187.76C181.83 187.76 181.51 187.71 181.14 187.58Z" />
			<path id="Layer" fill-rule="evenodd" class="shp2" d="M196.73 172.95L197.75 172.95L197.75 179.29L200.89 179.29C204.04 179.29 206.07 180.46 206.07 183.2C206.07 186.07 204.22 187.5 200.96 187.5L196.73 187.5L196.73 172.95ZM200.7 186.64C203.59 186.64 205.06 185.6 205.06 183.24C205.06 181.07 203.55 180.15 200.62 180.15L197.75 180.15L197.75 186.64L200.7 186.64Z" />
			<path id="Layer" class="shp2" d="M213.61 173.82L208.55 173.82L208.55 172.94L219.7 172.94L219.7 173.82L214.64 173.82L214.64 187.49L213.62 187.49L213.62 173.82L213.61 173.82Z" />
			<path id="Layer" class="shp2" d="M223.46 187.57L223.73 186.6C223.95 186.69 224.22 186.74 224.56 186.74C225.68 186.74 226.24 186.29 226.7 185.26L227.07 184.32L222.09 172.95L223.18 172.95L226.48 180.7L227.52 183.22L227.61 183.22L228.57 180.7L231.62 172.95L232.68 172.95L227.76 185.24C227.13 186.81 226.24 187.77 224.65 187.77C224.12 187.76 223.84 187.71 223.46 187.57Z" />
			<path id="Layer" fill-rule="evenodd" class="shp2" d="M240.54 172.95C243.79 172.95 245.73 174.02 245.73 177C245.73 179.86 243.79 181.24 240.54 181.24L237.6 181.24L237.6 187.49L236.58 187.49L236.58 172.95L240.54 172.95ZM240.29 180.38C243.26 180.38 244.68 179.39 244.68 177C244.68 174.57 243.25 173.81 240.29 173.81L237.61 173.81L237.61 180.39L240.29 180.39L240.29 180.38Z" />
			<path id="Layer" class="shp2" d="M250.03 172.95L258.64 172.95L258.64 173.83L251.05 173.83L251.05 179.34L257.44 179.34L257.44 180.22L251.05 180.22L251.05 186.63L258.86 186.63L258.86 187.51L250.03 187.51L250.03 172.95Z" />
			<path id="Layer" fill-rule="evenodd" class="shp2" d="M280.27 172.95C283.52 172.95 285.46 174.02 285.46 177C285.46 179.86 283.52 181.24 280.27 181.24L277.33 181.24L277.33 187.49L276.31 187.49L276.31 172.95L280.27 172.95ZM280.03 180.38C283 180.38 284.42 179.39 284.42 177C284.42 174.57 282.99 173.81 280.03 173.81L277.35 173.81L277.35 180.39L280.03 180.39L280.03 180.38Z" />
			<path id="Layer" fill-rule="evenodd" class="shp2" d="M287.7 180.16C287.7 176.87 289.67 174.91 293.14 174.84L293.14 172.68L294.05 172.68L294.05 174.84C297.51 174.92 299.47 176.88 299.47 180.16C299.47 183.46 297.51 185.5 294.05 185.58L294.05 187.76L293.14 187.76L293.14 185.58C289.66 185.51 287.7 183.48 287.7 180.16ZM298.46 180.16C298.46 177.44 296.98 175.74 294.05 175.67L294.05 184.75C296.97 184.68 298.46 182.89 298.46 180.16ZM288.74 180.16C288.74 182.89 290.22 184.68 293.14 184.75L293.14 175.67C290.22 175.74 288.74 177.44 288.74 180.16Z" />
			<path id="Layer" class="shp2" d="M305.51 186.32C305.51 185.41 306.14 184.88 306.83 184.88C307.52 184.88 308.15 185.41 308.15 186.32C308.15 187.24 307.52 187.76 306.83 187.76C306.15 187.76 305.51 187.23 305.51 186.32Z" />
			<path id="Layer" class="shp2" d="M330.01 172.95L338.49 172.95L338.49 173.83L331.03 173.83L331.03 187.5L330.01 187.5L330.01 172.95L330.01 172.95Z" />
			<path id="Layer" fill-rule="evenodd" class="shp2" d="M341.13 180.17C341.13 175.55 343.39 172.68 346.57 172.68C349.74 172.68 352.01 175.55 352.01 180.17C352.01 184.8 349.75 187.76 346.57 187.76C343.4 187.76 341.13 184.8 341.13 180.17ZM350.94 180.17C350.94 176.13 349.18 173.61 346.57 173.61C343.97 173.61 342.2 176.13 342.2 180.17C342.2 184.23 343.96 186.83 346.57 186.83C349.17 186.83 350.94 184.23 350.94 180.17Z" />
			<path id="Layer" class="shp2" d="M354.77 180.19C354.77 175.58 357.29 172.68 361.02 172.68C362.72 172.68 364.02 173.52 364.8 174.41L364.19 175.08C363.41 174.19 362.34 173.6 361.02 173.6C357.83 173.6 355.84 176.14 355.84 180.17C355.84 184.21 357.83 186.83 360.96 186.83C362.45 186.83 363.56 186.22 364.61 185.05L365.22 185.68C364.11 186.97 362.79 187.76 360.88 187.76C357.3 187.76 354.77 184.82 354.77 180.19Z" />
			<path id="Layer" class="shp2" d="M369.16 187.57L369.43 186.6C369.65 186.69 369.92 186.74 370.26 186.74C371.38 186.74 371.94 186.29 372.4 185.26L372.77 184.32L367.79 172.95L368.88 172.95L372.18 180.7L373.22 183.22L373.31 183.22L374.27 180.7L377.32 172.95L378.38 172.95L373.46 185.24C372.83 186.81 371.94 187.77 370.35 187.77C369.82 187.76 369.54 187.71 369.16 187.57Z" />
			<path id="Layer" class="shp2" d="M380.3 187.17L380.3 186.61L392.32 186.61L392.32 187.17L392.17 191.64L391.31 191.64L391.31 187.49L381.32 187.49L381.32 191.64L380.46 191.64L380.3 187.17ZM389.77 173.82L385.09 173.82C384.59 176.71 384.37 178.64 383.85 181.48C383.06 185.81 382.33 186.81 381.53 187.13L380.96 186.61C381.53 186.35 382.18 185.3 382.91 181.27C383.47 178.19 383.77 176.25 384.27 172.94L390.79 172.94L390.79 187.49L389.77 187.49L389.77 173.82Z" />
			<path id="Layer" fill-rule="evenodd" class="shp2" d="M399.04 172.95L400.07 172.95L405.19 187.5L404.1 187.5L402.41 182.51L402.78 182.51L402.78 181.65L402.12 181.65L401.2 178.94C400.61 177.22 400.09 175.69 399.59 173.92L399.5 173.92C398.99 175.69 398.48 177.22 397.89 178.94L396.96 181.65L396.26 181.65L396.26 182.51L396.66 182.51L394.95 187.5L393.92 187.5L399.04 172.95ZM402.41 182.51L402.12 181.65L396.96 181.65L396.66 182.51L402.41 182.51Z" />
			<path id="Layer" fill-rule="evenodd" class="shp2" d="M412.73 172.95C415.98 172.95 417.92 174.02 417.92 177C417.92 179.86 415.98 181.24 412.73 181.24L409.79 181.24L409.79 187.49L408.77 187.49L408.77 172.95L412.73 172.95ZM412.48 180.38C415.45 180.38 416.87 179.39 416.87 177C416.87 174.57 415.44 173.81 412.48 173.81L409.8 173.81L409.8 180.39L412.48 180.39L412.48 180.38Z" />
			<path id="Layer" class="shp2" d="M421 180.19C421 175.58 423.52 172.68 427.25 172.68C428.95 172.68 430.25 173.52 431.03 174.41L430.42 175.08C429.64 174.19 428.58 173.6 427.25 173.6C424.06 173.6 422.07 176.14 422.07 180.17C422.07 184.21 424.06 186.83 427.19 186.83C428.68 186.83 429.79 186.22 430.84 185.05L431.45 185.68C430.34 186.97 429.02 187.76 427.11 187.76C423.53 187.76 421 184.82 421 180.19Z" />
			<path id="Layer" class="shp2" d="M438.78 173.82L433.72 173.82L433.72 172.94L444.87 172.94L444.87 173.82L439.81 173.82L439.81 187.49L438.79 187.49L438.79 173.82L438.78 173.82Z" />
			<path id="Layer" fill-rule="evenodd" class="shp2" d="M452.12 172.95C455.11 172.95 456.88 174.06 456.88 176.48C456.88 178 456.03 179.21 454.31 179.65L454.31 179.74C456.46 180.06 457.78 181.24 457.78 183.25C457.78 186.05 455.77 187.49 452.41 187.49L448.44 187.49L448.44 172.95L452.12 172.95ZM451.72 179.33C454.71 179.33 455.88 178.37 455.88 176.52C455.88 174.58 454.57 173.81 451.84 173.81L449.45 173.81L449.45 179.32L451.72 179.32L451.72 179.33ZM456.77 183.26C456.77 181.17 455.11 180.2 452.14 180.2L449.45 180.2L449.45 186.62L452.14 186.62C455.1 186.62 456.77 185.59 456.77 183.26Z" />
			<path id="Layer" class="shp2" d="M461.96 172.95L470.57 172.95L470.57 173.83L462.98 173.83L462.98 179.34L469.37 179.34L469.37 180.22L462.98 180.22L462.98 186.63L470.79 186.63L470.79 187.51L461.96 187.51L461.96 172.95L461.96 172.95Z" />
			<path id="Layer" class="shp2" d="M474.36 172.95L475.38 172.95L475.38 179.32L482.67 179.32L482.67 172.95L483.69 172.95L483.69 187.5L482.67 187.5L482.67 180.22L475.38 180.22L475.38 187.5L474.36 187.5L474.36 172.95Z" />
			<path id="Layer" class="shp2" d="M487.6 172.95L488.62 172.95L488.62 179.32L495.91 179.32L495.91 172.95L496.93 172.95L496.93 187.5L495.91 187.5L495.91 180.22L488.62 180.22L488.62 187.5L487.6 187.5L487.6 172.95Z" />
			<path id="Layer" fill-rule="evenodd" class="shp2" d="M501.36 172.95L501.36 179.29L502.41 179.29C505.48 179.29 507.45 180.46 507.45 183.2C507.45 186.07 505.65 187.5 502.48 187.5L500.39 187.5L500.39 172.95L501.36 172.95ZM502.24 186.64C505.05 186.64 506.49 185.6 506.49 183.24C506.49 181.07 505.02 180.15 502.16 180.15L501.35 180.15L501.35 186.64L502.24 186.64ZM509.68 172.95L510.66 172.95L510.66 187.5L509.68 187.5L509.68 172.95Z" />
			<path id="Layer" class="shp2" d="M514.09 172.95L515.08 172.95L515.08 181.87C515.08 183.28 515 184.69 514.95 186.11L515.03 186.11L516.57 183.2L522.32 172.95L523.45 172.95L523.45 187.5L522.45 187.5L522.45 178.46C522.45 177.05 522.53 175.73 522.58 174.33L522.5 174.33L520.96 177.24L515.21 187.49L514.08 187.49L514.08 172.95L514.09 172.95ZM515.85 169.05L516.77 168.99C516.81 170.11 517.36 171.14 518.85 171.14C520.34 171.14 520.89 170.11 520.93 168.99L521.85 169.05C521.74 170.37 521.09 171.81 518.85 171.81C516.61 171.82 515.96 170.37 515.85 169.05Z" />
			<path id="Layer" class="shp2" d="M539.24 187.17L539.24 186.61L551.26 186.61L551.26 187.17L551.11 191.64L550.25 191.64L550.25 187.49L540.26 187.49L540.26 191.64L539.4 191.64L539.24 187.17ZM548.71 173.82L544.03 173.82C543.53 176.71 543.31 178.64 542.79 181.48C542 185.81 541.27 186.81 540.47 187.13L539.9 186.61C540.47 186.35 541.12 185.3 541.85 181.27C542.41 178.19 542.71 176.25 543.22 172.94L549.73 172.94L549.73 187.49L548.71 187.49L548.71 173.82Z" />
			<path id="Layer" fill-rule="evenodd" class="shp2" d="M558.43 172.95C561.68 172.95 563.62 174.02 563.62 177C563.62 179.86 561.68 181.24 558.43 181.24L555.49 181.24L555.49 187.49L554.47 187.49L554.47 172.95L558.43 172.95ZM558.18 180.38C561.15 180.38 562.57 179.39 562.57 177C562.57 174.57 561.14 173.81 558.18 173.81L555.5 173.81L555.5 180.39L558.18 180.39L558.18 180.38Z" />
			<path id="Layer" fill-rule="evenodd" class="shp2" d="M571.23 172.95L572.26 172.95L577.38 187.5L576.29 187.5L574.6 182.51L574.97 182.51L574.97 181.65L574.31 181.65L573.39 178.94C572.8 177.22 572.28 175.69 571.78 173.92L571.69 173.92C571.18 175.69 570.67 177.22 570.08 178.94L569.15 181.65L568.45 181.65L568.45 182.51L568.85 182.51L567.14 187.5L566.11 187.5L571.23 172.95ZM574.6 182.51L574.31 181.65L569.15 181.65L568.85 182.51L574.6 182.51Z" />
			<path id="Layer" class="shp2" d="M580.15 172.95L581.5 172.95L584.05 179.78L584.95 182.31L585.04 182.31L585.9 179.78L588.48 172.95L589.83 172.95L589.83 187.5L588.84 187.5L588.84 177.57C588.84 176.53 588.93 175.12 588.97 174.12L588.9 174.12L588.1 176.61L585.37 183.62L584.58 183.62L581.87 176.61L581.01 174.12L580.97 174.12C581.02 175.12 581.12 176.53 581.12 177.57L581.12 187.5L580.15 187.5L580.15 172.95Z" />
			<path id="Layer" fill-rule="evenodd" class="shp2" d="M597.72 172.95L598.75 172.95L603.87 187.5L602.78 187.5L601.09 182.51L601.46 182.51L601.46 181.65L600.8 181.65L599.88 178.94C599.29 177.22 598.77 175.69 598.27 173.92L598.18 173.92C597.67 175.69 597.16 177.22 596.57 178.94L595.64 181.65L594.94 181.65L594.94 182.51L595.34 182.51L593.63 187.5L592.6 187.5L597.72 172.95ZM601.09 182.51L600.8 181.65L595.64 181.65L595.34 182.51L601.09 182.51Z" />
			<path id="Layer" class="shp2" d="M610.97 173.82L605.91 173.82L605.91 172.94L617.06 172.94L617.06 173.82L612 173.82L612 187.49L610.98 187.49L610.98 173.82L610.97 173.82Z" />
			<path id="Layer" class="shp2" d="M620.05 172.95L621.04 172.95L621.04 181.87C621.04 183.28 620.96 184.69 620.91 186.11L620.99 186.11L622.53 183.2L628.28 172.95L629.41 172.95L629.41 187.5L628.41 187.5L628.41 178.46C628.41 177.05 628.49 175.73 628.54 174.33L628.46 174.33L626.92 177.24L621.17 187.49L620.04 187.49L620.04 172.95L620.05 172.95Z" />
			<path id="Layer" class="shp2" d="M641.4 180.62C640.62 180.75 639.62 180.87 638.3 180.87C635.06 180.87 633.06 179.71 633.06 176.39L633.06 172.95L634.07 172.95L634.07 176.39C634.07 179.13 635.68 179.97 638.38 179.97C639.67 179.97 640.68 179.84 641.4 179.72L641.4 172.94L642.42 172.94L642.42 187.49L641.4 187.49L641.4 180.62L641.4 180.62Z" />
			<path id="Layer" class="shp2" d="M647.4 172.95L656.01 172.95L656.01 173.83L648.42 173.83L648.42 179.34L654.81 179.34L654.81 180.22L648.42 180.22L648.42 186.63L656.23 186.63L656.23 187.51L647.4 187.51L647.4 172.95L647.4 172.95Z" />
			<path id="Layer" class="shp2" d="M659.42 180.19C659.42 175.58 661.94 172.68 665.67 172.68C667.37 172.68 668.67 173.52 669.45 174.41L668.84 175.08C668.06 174.19 667 173.6 665.67 173.6C662.48 173.6 660.49 176.14 660.49 180.17C660.49 184.21 662.48 186.83 665.61 186.83C667.1 186.83 668.21 186.22 669.26 185.05L669.87 185.68C668.76 186.97 667.44 187.76 665.53 187.76C661.95 187.76 659.42 184.82 659.42 180.19Z" />
			<path id="Layer" class="shp2" d="M673.75 172.95L674.77 172.95L674.77 179.33L678.34 179.33L683.7 187.5L682.53 187.5L677.74 180.21L674.77 180.21L674.77 187.5L673.75 187.5L673.75 172.95L673.75 172.95ZM677.62 179.61L679.85 175.43C681.1 173.09 681.69 172.67 682.8 172.67C683 172.67 683.21 172.71 683.37 172.77L683.18 173.79C683.04 173.74 682.85 173.7 682.72 173.7C682.1 173.7 681.69 173.93 680.66 175.83L678.54 179.79L677.62 179.61Z" />
			<path id="Layer" class="shp2" d="M686.28 172.95L687.27 172.95L687.27 181.87C687.27 183.28 687.19 184.69 687.14 186.11L687.22 186.11L688.76 183.2L694.51 172.95L695.64 172.95L695.64 187.5L694.64 187.5L694.64 178.46C694.64 177.05 694.72 175.73 694.77 174.33L694.69 174.33L693.15 177.24L687.4 187.49L686.27 187.49L686.27 172.95L686.28 172.95Z" />
			<path id="Layer" class="shp2" d="M699.52 172.95L700.51 172.95L700.51 181.87C700.51 183.28 700.43 184.69 700.38 186.11L700.46 186.11L702 183.2L707.75 172.95L708.88 172.95L708.88 187.5L707.88 187.5L707.88 178.46C707.88 177.05 707.96 175.73 708.01 174.33L707.93 174.33L706.39 177.24L700.64 187.49L699.51 187.49L699.51 172.95L699.52 172.95ZM701.29 169.05L702.21 168.99C702.25 170.11 702.8 171.14 704.29 171.14C705.78 171.14 706.33 170.11 706.37 168.99L707.29 169.05C707.18 170.37 706.53 171.81 704.29 171.81C702.05 171.82 701.4 170.37 701.29 169.05Z" />
			<path id="Layer" class="shp2" d="M730.18 173.82L725.12 173.82L725.12 172.94L736.27 172.94L736.27 173.82L731.21 173.82L731.21 187.49L730.19 187.49L730.19 173.82L730.18 173.82Z" />
			<path id="Layer" class="shp2" d="M740.12 172.95L748.73 172.95L748.73 173.83L741.14 173.83L741.14 179.34L747.53 179.34L747.53 180.22L741.14 180.22L741.14 186.63L748.95 186.63L748.95 187.51L740.12 187.51L740.12 172.95L740.12 172.95Z" />
			<path id="Layer" fill-rule="evenodd" class="shp2" d="M756.67 172.95L757.7 172.95L762.82 187.5L761.73 187.5L760.04 182.51L760.41 182.51L760.41 181.65L759.75 181.65L758.83 178.94C758.24 177.22 757.72 175.69 757.22 173.92L757.13 173.92C756.62 175.69 756.11 177.22 755.52 178.94L754.59 181.65L753.89 181.65L753.89 182.51L754.29 182.51L752.58 187.5L751.55 187.5L756.67 172.95ZM760.04 182.51L759.75 181.65L754.59 181.65L754.29 182.51L760.04 182.51Z" />
			<path id="Layer" class="shp2" d="M769.92 173.82L764.86 173.82L764.86 172.94L776 172.94L776 173.82L770.94 173.82L770.94 187.49L769.92 187.49L769.92 173.82L769.92 173.82Z" />
			<path id="Layer" fill-rule="evenodd" class="shp2" d="M783.61 172.95C786.86 172.95 788.8 174.02 788.8 177C788.8 179.86 786.86 181.24 783.61 181.24L780.67 181.24L780.67 187.49L779.65 187.49L779.65 172.95L783.61 172.95ZM783.36 180.38C786.33 180.38 787.75 179.39 787.75 177C787.75 174.57 786.32 173.81 783.36 173.81L780.68 173.81L780.68 180.39L783.36 180.39L783.36 180.38Z" />
		</g>
	</g>
</svg>